<svg width="51" height="48" viewBox="0 0 51 48" fill="none" xmlns="http://www.w3.org/2000/svg">
<path d="M18.5234 11.6328C16.9301 11.6328 15.6328 12.9301 15.6328 14.5234C15.6328 16.1167 16.9301 17.4141 18.5234 17.4141C20.1168 17.4141 21.4141 16.1167 21.4141 14.5234C21.4141 12.9301 20.1168 11.6328 18.5234 11.6328ZM18.5234 16.2578C17.5672 16.2578 16.7891 15.4797 16.7891 14.5234C16.7891 13.5672 17.5672 12.7891 18.5234 12.7891C19.4797 12.7891 20.2578 13.5672 20.2578 14.5234C20.2578 15.4797 19.4797 16.2578 18.5234 16.2578Z" fill="#4C4D4F"/>
<path d="M30.8281 15.6914C30.8281 14.0981 29.5308 12.8008 27.9375 12.8008C26.3442 12.8008 25.0469 14.0981 25.0469 15.6914C25.0469 17.2847 26.3442 18.582 27.9375 18.582C29.5308 18.582 30.8281 17.2859 30.8281 15.6914ZM26.2031 15.6914C26.2031 14.7352 26.9813 13.957 27.9375 13.957C28.8937 13.957 29.6719 14.7352 29.6719 15.6914C29.6719 16.6476 28.8937 17.4258 27.9375 17.4258C26.9813 17.4258 26.2031 16.6476 26.2031 15.6914Z" fill="#4C4D4F"/>
<path d="M32.4414 20.7188C30.8481 20.7188 29.5508 22.0161 29.5508 23.6094C29.5508 25.2027 30.8481 26.5 32.4414 26.5C34.0347 26.5 35.332 25.2027 35.332 23.6094C35.332 22.0161 34.0347 20.7188 32.4414 20.7188ZM32.4414 25.3438C31.4852 25.3438 30.707 24.5656 30.707 23.6094C30.707 22.6532 31.4852 21.875 32.4414 21.875C33.3976 21.875 34.1758 22.6532 34.1758 23.6094C34.1758 24.5656 33.3976 25.3438 32.4414 25.3438Z" fill="#4C4D4F"/>
<path d="M29.5742 29.3359C27.6618 29.3359 26.1055 30.8922 26.1055 32.8047C26.1055 34.7171 27.6618 36.2734 29.5742 36.2734C31.4867 36.2734 33.043 34.7171 33.043 32.8047C33.043 30.8922 31.4878 29.3359 29.5742 29.3359ZM29.5742 35.1172C28.2989 35.1172 27.2617 34.08 27.2617 32.8047C27.2617 31.5293 28.2989 30.4922 29.5742 30.4922C30.8496 30.4922 31.8867 31.5293 31.8867 32.8047C31.8867 34.08 30.8496 35.1172 29.5742 35.1172Z" fill="#4C4D4F"/>
<path d="M25.6562 5C14.8176 5 6 13.9367 6 24.9199C6 30.3253 8.10091 35.4614 11.7639 39.0122C12.8612 40.076 13.9642 40.6379 14.9563 40.6379C15.8559 40.6379 16.6074 40.1731 17.0179 39.3626C17.6608 38.093 17.3347 36.2627 16.1877 34.6994C15.6292 33.9398 15.4778 33.0356 15.8015 32.3973C16.0305 31.9464 16.4733 31.6978 17.048 31.6978C17.7198 31.6978 19.5778 32.0724 22.3078 35.5389C26.5119 40.8784 30.4362 42 32.9892 42C35.1329 42 37.1968 41.1941 38.8017 39.7314C42.9387 35.9563 45.3125 30.5578 45.3125 24.9199C45.3125 13.9367 36.4949 5 25.6562 5ZM38.0223 38.8758C36.6314 40.1454 34.8438 40.8438 32.9892 40.8438C30.6929 40.8438 27.1339 39.7997 23.2154 34.8232C21.0405 32.0609 18.8506 30.5404 17.0468 30.5404C16.0282 30.5404 15.198 31.026 14.769 31.8747C14.2429 32.913 14.4291 34.2577 15.2546 35.3828C16.2687 36.7645 16.3531 38.115 15.9854 38.84C15.8374 39.1325 15.5391 39.4817 14.9563 39.4817C14.2811 39.4817 13.4335 39.0203 12.5698 38.1821C9.12881 34.8474 7.15625 30.0143 7.15625 24.9199C7.15625 14.5738 15.4558 6.15625 25.6562 6.15625C35.8567 6.15625 44.1562 14.5738 44.1562 24.9199C44.1562 30.234 41.9201 35.3203 38.0223 38.8758Z" fill="#4C4D4F"/>
</svg>
