<svg width="48" height="48" viewBox="0 0 48 48" fill="none" xmlns="http://www.w3.org/2000/svg">
<path d="M17.541 24.6342L16.3632 26.2653C14.6204 26.2293 12.9194 25.7248 11.4388 24.8046C9.9583 23.8844 8.75284 22.5825 7.94906 21.0357C7.14528 19.4889 6.77283 17.7542 6.87082 16.0137C6.96882 14.2733 7.53364 12.5913 8.50598 11.1445C9.47832 9.69767 10.8223 8.53935 12.3968 7.79118C13.9712 7.043 15.7181 6.73258 17.454 6.89251C19.1898 7.05244 20.8506 7.67681 22.2619 8.70007C23.6731 9.72333 24.7828 11.1077 25.4745 12.7078H23.72C23.0349 11.4406 22.0262 10.3777 20.7965 9.62732C19.5668 8.87692 18.1603 8.46589 16.72 8.43609C15.2798 8.40629 13.8574 8.75879 12.5978 9.45767C11.3381 10.1566 10.2863 11.1769 9.5493 12.4146C8.81236 13.6524 8.41668 15.0634 8.40259 16.5038C8.38849 17.9443 8.75648 19.3628 9.46906 20.6147C10.1816 21.8667 11.2133 22.9074 12.4591 23.6308C13.7048 24.3542 15.12 24.7344 16.5605 24.7328C16.8891 24.7201 17.2165 24.6871 17.541 24.6342ZM21.9579 14.2495V24.9225L23.4996 27.0577V15.7912H38.9163V31.2078H26.4966L27.6112 32.7495H40.4579V14.2495H21.9579ZM31.2758 40.4578H8.01509L19.6454 24.3536L31.2758 40.4578ZM19.6454 26.9868L11.029 38.9162H28.2633L19.6454 26.9868Z" fill="#4C4D4F"/>
</svg>
